<?xml version="1.0" encoding="utf-8"?>
<!-- Generator: Adobe Illustrator 15.0.0, SVG Export Plug-In . SVG Version: 6.00 Build 0)  -->
<!DOCTYPE svg PUBLIC "-//W3C//DTD SVG 1.1//EN" "http://www.w3.org/Graphics/SVG/1.1/DTD/svg11.dtd">
<svg version="1.1" id="Layer_3_copy" xmlns="http://www.w3.org/2000/svg" xmlns:xlink="http://www.w3.org/1999/xlink" x="0px"
	 y="0px" width="648.847px" height="68.101px" viewBox="-187.049 4.847 648.847 68.101"
	 enable-background="new -187.049 4.847 648.847 68.101" xml:space="preserve">
<path d="M-187.049,38.897c4.66,2.401,11.059,6.65,19.532,14.119l0.225,0.22c0.181,0.197,18.295,19.698,32.125,19.698H407.13
	l0.13,0.012c0.088-0.003,12.175,0.604,28.77-15.576c0.711-0.681,13.373-12.702,25.769-18.472
	c-12.396-5.77-25.052-17.786-25.748-18.452C419.435,4.242,407.354,4.84,407.23,4.852L407,4.861h-542.167
	c-13.83,0-31.944,19.501-32.126,19.698l-0.224,0.219C-175.99,32.246-182.389,36.495-187.049,38.897z"/>
</svg>
