<?xml version="1.0" encoding="utf-8"?>
<!-- Generator: Adobe Illustrator 15.0.0, SVG Export Plug-In . SVG Version: 6.00 Build 0)  -->
<!DOCTYPE svg PUBLIC "-//W3C//DTD SVG 1.1//EN" "http://www.w3.org/Graphics/SVG/1.1/DTD/svg11.dtd">
<svg version="1.1" id="Layer_3_copy" xmlns="http://www.w3.org/2000/svg" xmlns:xlink="http://www.w3.org/1999/xlink" x="0px"
	 y="0px" width="960px" height="80px" viewBox="-488.325 -1.102 960 80" enable-background="new -488.325 -1.102 960 80"
	 xml:space="preserve">
<path fill="#47628B" d="M406.183,78.897c-0.251,0-0.44-0.007-0.567-0.014H-134.77c-15.949,0-34.542-19.579-36.317-21.491
	c-14.602-12.87-22.087-15.089-24.26-15.473c-0.433,0.034-0.767,0.029-1.009,0.018l-291.969-0.001v-5.992l2.991-0.085l288.979-0.001
	c0.242-0.018,0.575-0.02,1.009,0.016c2.174-0.381,9.659-2.601,24.26-15.474c1.775-1.91,20.368-21.489,36.317-21.489h540.386
	c1.733-0.094,15.354-0.194,33.207,17.247c5.537,5.302,21.688,18.813,31.797,19.737c0.354-0.023,0.707-0.035,1.054-0.035v6.077
	c-0.348,0-0.7-0.012-1.054-0.035c-10.11,0.923-26.264,14.436-31.818,19.756C422.272,77.806,409.365,78.897,406.183,78.897z
	 M-186.492,38.897c4.646,2.397,11.024,6.641,19.471,14.102l0.224,0.22c0.181,0.196,18.238,19.673,32.025,19.673h540.607l0.13,0.012
	c0.087-0.003,12.137,0.603,28.681-15.557c0.709-0.68,13.332-12.686,25.688-18.448c-12.357-5.763-24.974-17.764-25.668-18.429
	c-16.564-16.184-28.608-15.587-28.73-15.574l-0.23,0.009h-540.478c-13.787,0-31.844,19.477-32.026,19.673l-0.223,0.218
	C-175.468,32.254-181.847,36.498-186.492,38.897z"/>
</svg>
