<?xml version="1.0" encoding="utf-8"?>
<!-- Generator: Adobe Illustrator 15.0.0, SVG Export Plug-In . SVG Version: 6.00 Build 0)  -->
<!DOCTYPE svg PUBLIC "-//W3C//DTD SVG 1.1//EN" "http://www.w3.org/Graphics/SVG/1.1/DTD/svg11.dtd">
<svg version="1.1" id="Layer_3_copy_2" xmlns="http://www.w3.org/2000/svg" xmlns:xlink="http://www.w3.org/1999/xlink" x="0px"
	 y="0px" width="149.5px" height="79.694px" viewBox="-199.625 -0.949 149.5 79.694"
	 enable-background="new -199.625 -0.949 149.5 79.694" xml:space="preserve">
<path fill="#446288" d="M-114.84,78.715h-20.034c-0.855-0.019-19.501-0.648-34.113-18.698
	c-12.177-15.043-26.107-17.836-27.758-18.118l-2.879-0.396l0,0v-2.604v-2.624l0,0l2.882-0.376
	c1.609-0.275,15.561-3.054,27.755-18.118c14.612-18.05,33.258-18.681,34.044-18.698l20.068-0.001
	c0.855,0.019,19.501,0.649,34.113,18.699c12.271,15.159,26.114,17.849,27.749,18.118l2.888,0.375l0,0v2.625v2.625l0,0l-2.882,0.376
	c-1.609,0.274-15.561,3.054-27.755,18.118c-14.612,18.05-33.258,18.68-34.045,18.697L-114.84,78.715z M-186.509,38.898
	c6.191,2.719,14.487,7.833,22.185,17.343c12.795,15.807,29.361,16.47,29.527,16.475l19.87-0.001
	c0.748-0.033,16.941-0.957,29.502-16.474c7.698-9.51,15.993-14.624,22.185-17.343c-6.191-2.719-14.487-7.833-22.185-17.343
	C-98.221,5.748-114.787,5.084-114.953,5.079l-19.922,0.001c-0.088,0.004-16.654,0.667-29.45,16.475
	C-172.022,31.065-180.317,36.179-186.509,38.898z"/>
</svg>
