<?xml version="1.0" encoding="utf-8"?>
<!-- Generator: Adobe Illustrator 15.0.0, SVG Export Plug-In . SVG Version: 6.00 Build 0)  -->
<!DOCTYPE svg PUBLIC "-//W3C//DTD SVG 1.1//EN" "http://www.w3.org/Graphics/SVG/1.1/DTD/svg11.dtd">
<svg version="1.1" id="Layer_1" xmlns="http://www.w3.org/2000/svg" xmlns:xlink="http://www.w3.org/1999/xlink" x="0px" y="0px"
	 width="122px" height="78.576px" viewBox="22.907 19.664 122 78.576" enable-background="new 22.907 19.664 122 78.576"
	 xml:space="preserve">
<path id="Layer_3_copy_3" fill="#446088" d="M108.757,98.24H59.22l0.632-6.915H22.907l3.207-35.114l14.089-9.662
	c-2.813-2.753-4.624-7.043-4.624-11.853c0-8.288,5.38-15.033,11.993-15.033c6.614,0,11.994,6.744,11.994,15.033
	c0,4.762-1.775,9.014-4.54,11.77l14.209,9.745l0.193,2.113l7.087-4.86c-2.813-2.754-4.624-7.042-4.624-11.852
	c0-8.289,5.38-15.033,11.992-15.033c6.615,0,11.996,6.743,11.996,15.033c0,4.761-1.776,9.013-4.542,11.769l7.058,4.839l0.185-2.008
	l14.087-9.662c-2.813-2.753-4.624-7.043-4.624-11.853c0-8.289,5.381-15.032,11.994-15.032s11.995,6.743,11.995,15.032
	c0,4.762-1.777,9.014-4.541,11.77l14.211,9.745l3.205,35.115h-36.782L108.757,98.24z M64.049,93.823h39.88l-0.228-2.498l0,0
	l-2.311-25.779l-14.03-9.545c-2.155,0.819-4.648,0.837-6.814,0.049l-13.906,9.493l-1.96,21.365l-0.403,4.417L64.049,93.823z
	 M107.724,86.908h32.358l-2.578-28.227l-13.992-9.595c-2.155,0.819-4.648,0.837-6.813,0.049l-13.919,9.546l-0.219,2.392l2.991,2.05
	L107.724,86.908z M27.734,86.908h32.521l2.172-23.784l2.838-1.945l-0.228-2.498l-13.992-9.595c-2.155,0.819-4.647,0.838-6.813,0.049
	l-13.92,9.546L27.734,86.908z M83.885,30.995c-4.182,0-7.586,4.763-7.586,10.617c0,5.854,3.404,10.617,7.586,10.617
	c4.186,0,7.59-4.763,7.59-10.617C91.475,35.758,88.071,30.995,83.885,30.995z M120.039,24.08c-4.184,0-7.589,4.764-7.589,10.617
	c0,5.854,3.405,10.617,7.589,10.617c4.185,0,7.589-4.762,7.589-10.617C127.628,28.844,124.223,24.08,120.039,24.08z M47.572,24.08
	c-4.185,0-7.587,4.764-7.587,10.617c0,5.854,3.403,10.617,7.587,10.617s7.588-4.762,7.588-10.617
	C55.16,28.844,51.756,24.08,47.572,24.08z"/>
</svg>
