<?xml version="1.0" encoding="utf-8"?>
<!-- Generator: Adobe Illustrator 15.0.0, SVG Export Plug-In . SVG Version: 6.00 Build 0)  -->
<!DOCTYPE svg PUBLIC "-//W3C//DTD SVG 1.1//EN" "http://www.w3.org/Graphics/SVG/1.1/DTD/svg11.dtd">
<svg version="1.1" xmlns="http://www.w3.org/2000/svg" xmlns:xlink="http://www.w3.org/1999/xlink" x="0px" y="0px"
	 width="2022.339px" height="2022.339px" viewBox="0 0 2022.339 2022.339" enable-background="new 0 0 2022.339 2022.339"
	 xml:space="preserve">
<g id="Layer_2">
	<g>
		<path d="M978.465,698.581c-99.159,10.142-134.809-9.913-134.809-9.913l-9.334,91.334c67.295-4.807,117.622-13.051,144.313-18.161
			L978.465,698.581z"/>
		<path d="M977.923,497.019l-0.274-101.666C858.636,382.05,868.99,333.334,868.99,333.334
			c18.359-75.812,60.093-116.208,108.125-136.188l-0.149-55.421c-173.652,64.293-171.644,217.609-171.644,217.609
			C802.419,471.212,926.201,492.856,977.923,497.019z"/>
		<path d="M1023.289,398.623l0.096,102.463c109.41,17.404,95.604,60.248,95.604,60.248
			c-14.646,73.688-65.185,109.668-95.431,124.986l0.059,62.305c116.133-49.83,149.374-169.291,149.374-169.291
			C1219.505,432.302,1080.259,404.048,1023.289,398.623z"/>
		<path d="M1023.036,127.9l0.053,56.102c89.358-15.563,181.901,18.666,181.901,18.666L1238.96,118
			C1149.974,109.59,1079.25,114.594,1023.036,127.9z"/>
	</g>
	<path stroke="#231F20" stroke-miterlimit="10" d="M1420.634,352.524c0,0,254.568-111.026,368.785-3.458
		c0,0,103.08,82.177-10.074,246.724c0,0-102.15,137.206-367.889,125.43c0,0-103.676-19.707-146.086,26.254l-107.854,126.045
		l-107.176,10.578c0,0,179.604-238.542,249.406-233.988c0,0,11.1-9.722,134.031-8.526c0,0,199,32.067,319.627-96.229
		c0,0,106.061-97.886,9.818-160.958c0,0-95.158-69.879-341.031,56.007L1420.634,352.524z"/>
	<polyline points="1022.892,1 1023.703,871.375 978.922,879.476 976.578,9.094 	"/>
</g>
<g id="Layer_4">
	<g>
		<path d="M698.58,1044.17c10.142,99.159-9.912,134.81-9.912,134.81l91.333,9.334c-4.807-67.296-13.051-117.622-18.161-144.313
			L698.58,1044.17z"/>
		<path d="M497.019,1044.713l-101.666,0.273c-13.303,119.013-62.019,108.659-62.019,108.659
			c-75.812-18.359-116.208-60.093-136.188-108.125l-55.421,0.148c64.293,173.652,217.609,171.645,217.609,171.645
			C471.212,1220.216,492.856,1096.435,497.019,1044.713z"/>
		<path d="M398.623,999.347l102.463-0.096c17.403-109.41,60.248-95.604,60.248-95.604c73.688,14.646,109.668,65.185,124.985,95.431
			l62.305-0.059c-49.83-116.133-169.29-149.374-169.29-149.374C432.302,803.13,404.048,942.376,398.623,999.347z"/>
		<path d="M127.9,999.6l56.102-0.053c-15.563-89.358,18.666-181.901,18.666-181.901L118,783.675
			C109.59,872.662,114.594,943.386,127.9,999.6z"/>
	</g>
	<path stroke="#231F20" stroke-miterlimit="10" d="M352.523,602.001c0,0-111.025-254.568-3.458-368.785
		c0,0,82.178-103.08,246.725,10.074c0,0,137.205,102.15,125.43,367.889c0,0-19.707,103.676,26.254,146.086l126.045,107.854
		l10.578,107.176c0,0-238.542-179.604-233.987-249.406c0,0-9.722-11.1-8.526-134.031c0,0,32.067-199-96.229-319.627
		c0,0-97.886-106.061-160.959-9.818c0,0-69.879,95.158,56.008,341.031L352.523,602.001z"/>
	<polyline points="1,999.744 871.374,998.933 879.476,1043.714 9.094,1046.058 	"/>
</g>
<g id="Layer_5">
	<g>
		<path d="M1043.33,1324.758c99.159-10.142,134.81,9.912,134.81,9.912l9.334-91.333c-67.296,4.807-117.622,13.051-144.313,18.161
			L1043.33,1324.758z"/>
		<path d="M1043.873,1526.32l0.274,101.666c119.012,13.303,108.658,62.019,108.658,62.019
			c-18.359,75.813-60.093,116.208-108.125,136.188l0.148,55.422c173.652-64.293,171.645-217.609,171.645-217.609
			C1219.375,1552.126,1095.594,1530.483,1043.873,1526.32z"/>
		<path d="M998.506,1624.716l-0.096-102.464c-109.41-17.403-95.604-60.248-95.604-60.248
			c14.646-73.688,65.185-109.668,95.431-124.985l-0.059-62.305c-116.133,49.83-149.374,169.29-149.374,169.29
			C802.29,1591.037,941.536,1619.291,998.506,1624.716z"/>
		<path d="M998.76,1895.439l-0.053-56.102c-89.359,15.563-181.902-18.666-181.902-18.666l-33.97,84.668
			C871.821,1913.749,942.545,1908.745,998.76,1895.439z"/>
	</g>
	<path stroke="#231F20" stroke-miterlimit="10" d="M601.161,1670.815c0,0-254.568,111.025-368.785,3.458
		c0,0-103.08-82.178,10.074-246.725c0,0,102.15-137.205,367.889-125.43c0,0,103.676,19.707,146.086-26.254l107.853-126.045
		l107.176-10.578c0,0-179.603,238.542-249.406,233.987c0,0-11.1,9.722-134.031,8.526c0,0-199-32.067-319.627,96.229
		c0,0-106.061,97.886-9.818,160.959c0,0,95.158,69.879,341.031-56.008L601.161,1670.815z"/>
	<polyline points="998.903,2022.339 998.092,1151.964 1042.874,1143.863 1045.217,2014.246 	"/>
</g>
<g id="Layer_6">
	<g>
		<path d="M1323.758,980.957c-10.142-99.159,9.913-134.81,9.913-134.81l-91.334-9.334c4.807,67.296,13.051,117.622,18.161,144.313
			L1323.758,980.957z"/>
		<path d="M1525.32,980.414l101.666-0.273c13.303-119.013,62.02-108.659,62.02-108.659
			c75.812,18.359,116.207,60.093,136.188,108.125l55.422-0.148c-64.293-173.652-217.609-171.645-217.609-171.645
			C1551.126,804.911,1529.483,928.692,1525.32,980.414z"/>
		<path d="M1623.716,1025.781l-102.463,0.096c-17.404,109.41-60.248,95.604-60.248,95.604
			c-73.688-14.646-109.668-65.186-124.986-95.432l-62.305,0.059c49.83,116.133,169.291,149.375,169.291,149.375
			C1590.037,1221.998,1618.291,1082.751,1623.716,1025.781z"/>
		<path d="M1894.439,1025.527l-56.102,0.053c15.563,89.359-18.666,181.902-18.666,181.902l84.668,33.971
			C1912.749,1152.466,1907.745,1081.742,1894.439,1025.527z"/>
	</g>
	<path stroke="#231F20" stroke-miterlimit="10" d="M1669.815,1423.126c0,0,111.026,254.568,3.458,368.785
		c0,0-82.178,103.08-246.725-10.074c0,0-137.205-102.15-125.43-367.889c0,0,19.707-103.676-26.254-146.086l-126.045-107.854
		l-10.578-107.176c0,0,238.543,179.604,233.988,249.406c0,0,9.721,11.1,8.525,134.031c0,0-32.066,199,96.23,319.627
		c0,0,97.885,106.061,160.958,9.818c0,0,69.879-95.158-56.007-341.031L1669.815,1423.126z"/>
	<polyline points="2021.339,1025.384 1150.964,1026.195 1142.863,981.413 2013.246,979.069 	"/>
</g>
</svg>
