<?xml version="1.0" encoding="utf-8"?>
<!-- Generator: Adobe Illustrator 15.0.0, SVG Export Plug-In . SVG Version: 6.00 Build 0)  -->
<!DOCTYPE svg PUBLIC "-//W3C//DTD SVG 1.1//EN" "http://www.w3.org/Graphics/SVG/1.1/DTD/svg11.dtd">
<svg version="1.1" id="Layer_3_copy" xmlns="http://www.w3.org/2000/svg" xmlns:xlink="http://www.w3.org/1999/xlink" x="0px"
	 y="0px" width="1920px" height="80px" viewBox="-486.827 -1.06 1920 80" enable-background="new -486.827 -1.06 1920 80"
	 xml:space="preserve">
<path fill="#47628B" d="M407.478,79.923c-0.25,0-0.439-0.007-0.567-0.014h-542.077c-15.999,0-34.651-19.581-36.43-21.488
	c-16.691-14.666-24.113-15.502-24.943-15.549l-0.249,0.055l-0.038-0.049l-290,0.001V35.94l290.332,0.003
	c1.025-0.074,8.475-1.117,24.898-15.567c1.782-1.914,20.432-21.515,36.43-21.515h542.077c1.756-0.093,15.411-0.184,33.309,17.269
	c5.749,5.498,22.921,19.819,32.954,19.819c10.033,0,27.205-14.321,32.975-19.839c17.881-17.436,31.524-17.343,33.289-17.249h542.076
	c15.999,0,34.648,19.601,36.431,21.515c16.685,14.681,24.108,15.523,24.942,15.57l0.249-0.055l0.038,0.049l293,0v6.939
	l-293.331-0.004c-1.024,0.073-8.473,1.112-24.899,15.546c-1.778,1.907-20.431,21.488-36.43,21.488H539.437
	c-1.752,0.093-15.408,0.185-33.307-17.246c-5.75-5.491-22.922-19.794-32.956-19.794c-10.034,0-27.206,14.303-32.976,19.813
	C423.617,78.83,410.67,79.923,407.478,79.923z M-188.069,39.408c4.73,2.29,11.442,6.591,20.551,14.61l0.225,0.219
	c0.181,0.197,18.296,19.673,32.127,19.673h542.297l0.13,0.012c0.088-0.001,12.169,0.61,28.771-15.557
	c0.732-0.7,14.143-13.422,26.883-18.957c-12.741-5.542-26.148-18.277-26.864-18.963c-16.622-16.208-28.703-15.606-28.82-15.593
	L407,4.861h-542.167c-13.83,0-31.944,19.5-32.125,19.698l-0.225,0.219C-176.626,32.807-183.339,37.115-188.069,39.408z
	 M483.433,39.407c12.74,5.534,26.146,18.253,26.863,18.938c16.621,16.188,28.703,15.583,28.821,15.573l0.23-0.009h542.166
	c11.5,0,27.09-14.2,32.127-19.672l0.225-0.22c9.109-8.019,15.821-12.32,20.551-14.61c-4.73-2.293-11.442-6.601-20.552-14.63
	l-0.225-0.219c-0.181-0.197-18.296-19.698-32.126-19.698H539.217l-0.131-0.011c-0.093-0.005-12.17-0.611-28.769,15.576
	C509.585,21.127,496.174,33.865,483.433,39.407z"/>
</svg>
