<?xml version="1.0" encoding="utf-8"?>
<!-- Generator: Adobe Illustrator 15.0.0, SVG Export Plug-In . SVG Version: 6.00 Build 0)  -->
<!DOCTYPE svg PUBLIC "-//W3C//DTD SVG 1.1//EN" "http://www.w3.org/Graphics/SVG/1.1/DTD/svg11.dtd">
<svg version="1.1" id="Layer_6" xmlns="http://www.w3.org/2000/svg" xmlns:xlink="http://www.w3.org/1999/xlink" x="0px" y="0px"
	 width="149.981px" height="121.484px" viewBox="0 0 149.981 121.484" enable-background="new 0 0 149.981 121.484"
	 xml:space="preserve">
<path fill="#FFFFFF" d="M75.645,74.727c1.276-1.16,4.308-3.51,9.092-7.049s8.094-6.251,9.929-8.137
	c2.77-2.843,4.793-5.563,6.07-8.159c1.276-2.596,1.915-5.331,1.915-8.202c0-5.047-2.23-9.268-6.69-12.662
	c-4.461-3.394-10.595-5.091-18.399-5.091c-7.123,0-13.058,1.465-17.807,4.395c-4.749,2.93-7.573,7.76-8.471,14.49l15.108,1.218
	c0.288-3.568,1.367-6.12,3.238-7.658c1.87-1.537,4.388-2.306,7.554-2.306c3.201,0,5.71,0.733,7.527,2.197
	c1.815,1.465,2.725,3.562,2.725,6.288c0,2.466-1.044,4.96-3.13,7.484c-1.547,1.827-5.738,5.309-12.572,10.443
	c-3.496,2.615-6.507,5.015-9.051,7.205l9.297,12.859H54.698h-0.344l-1.249-2.434c-1.934,3.146-3.144,6.435-3.604,9.869h53.148
	V78.121H72.542C73.333,77.019,74.367,75.888,75.645,74.727z"/>
</svg>
