<?xml version="1.0" encoding="utf-8"?>
<!-- Generator: Adobe Illustrator 15.0.0, SVG Export Plug-In . SVG Version: 6.00 Build 0)  -->
<!DOCTYPE svg PUBLIC "-//W3C//DTD SVG 1.1//EN" "http://www.w3.org/Graphics/SVG/1.1/DTD/svg11.dtd">
<svg version="1.1" id="Layer_2_copy_3" xmlns="http://www.w3.org/2000/svg" xmlns:xlink="http://www.w3.org/1999/xlink" x="0px"
	 y="0px" width="1920px" height="80px" viewBox="0 0 1920 80" enable-background="new 0 0 1920 80" xml:space="preserve">
<path fill="#446288" d="M1498.392,80H421.608c-10.981,0-26.36-16.235-28.077-18.086c-15.781-17.747-28.556-18.828-29.221-18.872H0
	v-6.084h364.322c0.485-0.03,13.324-1.008,29.166-18.824C395.248,16.235,410.627,0,421.608,0h1076.784
	c10.981,0,26.36,16.235,28.078,18.087c15.779,17.746,28.556,18.827,29.22,18.871H1920v6.084h-364.322
	c-0.485,0.03-13.324,1.009-29.165,18.824C1524.752,63.765,1509.373,80,1498.392,80z M375.15,40.002
	c5.999,2.735,14.026,7.93,22.793,17.79c5.763,6.204,17.334,16.123,23.664,16.123h1076.784c6.33,0,17.901-9.919,23.708-16.172
	c8.743-9.832,16.757-15.015,22.75-17.745c-5.999-2.735-14.026-7.929-22.793-17.79c-5.764-6.205-17.335-16.124-23.665-16.124H421.608
	c-6.33,0-17.901,9.919-23.708,16.172C389.157,32.09,381.143,37.271,375.15,40.002z"/>
</svg>
