<?xml version="1.0" encoding="utf-8"?>
<!-- Generator: Adobe Illustrator 15.0.0, SVG Export Plug-In . SVG Version: 6.00 Build 0)  -->
<!DOCTYPE svg PUBLIC "-//W3C//DTD SVG 1.1//EN" "http://www.w3.org/Graphics/SVG/1.1/DTD/svg11.dtd">
<svg version="1.1" id="Layer_2" xmlns="http://www.w3.org/2000/svg" xmlns:xlink="http://www.w3.org/1999/xlink" x="0px" y="0px"
	 width="1360px" height="116px" viewBox="280.004 0.013 1360 116" enable-background="new 280.004 0.013 1360 116"
	 xml:space="preserve">
<path fill="#446288" d="M1609.763,34.188c-0.279-0.34-28.295-34.175-53.293-34.175H363.54c-24.998,0-53.014,33.834-53.293,34.175
	l-0.134,0.159c-11.486,12.757-21.876,19.796-30.108,23.666c8.231,3.867,18.618,10.904,30.106,23.665l0.135,0.157
	c0.28,0.345,28.296,34.178,53.292,34.178H1556.47c24.998,0,53.014-33.833,53.293-34.178l0.138-0.158
	c11.482-12.756,21.872-19.795,30.104-23.664c-8.231-3.87-18.619-10.907-30.104-23.666L1609.763,34.188z"/>
</svg>
