<?xml version="1.0" encoding="utf-8"?>
<!-- Generator: Adobe Illustrator 15.0.0, SVG Export Plug-In . SVG Version: 6.00 Build 0)  -->
<!DOCTYPE svg PUBLIC "-//W3C//DTD SVG 1.1//EN" "http://www.w3.org/Graphics/SVG/1.1/DTD/svg11.dtd">
<svg version="1.1" id="Layer_2_copy_2" xmlns="http://www.w3.org/2000/svg" xmlns:xlink="http://www.w3.org/1999/xlink" x="0px"
	 y="0px" width="639.995px" height="80px" viewBox="-108.593 -12.904 639.995 80"
	 enable-background="new -108.593 -12.904 639.995 80" xml:space="preserve">
<path fill="#446288" d="M130.152,67.096H-51.524c-0.727-0.023-15.589-0.666-31.648-14.9l-0.255-0.256
	c-9.361-10.565-21.707-21.888-25.166-21.888v-5.911c3.462,0,15.807-11.318,25.166-21.89l0.256-0.255
	c16.058-14.237,30.922-14.879,31.545-14.899l363.454-0.001c0.726,0.021,15.588,0.663,31.648,14.9l0.255,0.255
	c9.36,10.571,21.704,21.89,25.165,21.89l162.505-0.001v5.916l-162.505-0.004c-3.461,0-15.808,11.319-25.165,21.888l-0.255,0.256
	c-16.061,14.237-30.923,14.88-31.548,14.9H130.152z M-78.969,47.937c14.258,12.568,27.425,13.243,27.558,13.246h363.239
	c0.02-0.003,13.188-0.678,27.443-13.246c3.828-4.314,14.091-15.481,22.319-20.841c-8.231-5.359-18.494-16.525-22.319-20.839
	C325.016-6.313,311.848-6.988,311.713-6.993H-51.524c-0.02,0.003-13.187,0.676-27.445,13.248
	c-3.827,4.314-14.091,15.481-22.318,20.841C-93.059,32.455-82.795,43.622-78.969,47.937z"/>
</svg>
