<?xml version="1.0" encoding="utf-8"?>
<!-- Generator: Adobe Illustrator 15.0.0, SVG Export Plug-In . SVG Version: 6.00 Build 0)  -->
<!DOCTYPE svg PUBLIC "-//W3C//DTD SVG 1.1//EN" "http://www.w3.org/Graphics/SVG/1.1/DTD/svg11.dtd">
<svg version="1.1" id="Layer_1" xmlns="http://www.w3.org/2000/svg" xmlns:xlink="http://www.w3.org/1999/xlink" x="0px" y="0px"
	 width="100.164px" height="104.625px" viewBox="0 0 100.164 104.625" enable-background="new 0 0 100.164 104.625"
	 xml:space="preserve">
<g id="Layer_3">
</g>
<g id="Layer_4">
	<path fill="#44608A" d="M97.449,37.231c0,0-13.063,43.958-32.438,64.625c0,0-5,5.501-10.918,1.001
		c-0.186-0.142-0.359-0.272-0.522-0.397c-1.776-1.107-7.765-5.256-10.727-12.52c0,0-1.324-3.745,1.671-7.664l-4.974,0.279
		c-0.047,0.003-0.094,0.004-0.141,0.004c-0.767,0-1.494-0.354-1.969-0.96c-0.504-0.646-0.661-1.496-0.419-2.278l2.271-7.343
		l-9.135,0.888c-0.848,0.081-1.679-0.271-2.206-0.941c-0.527-0.67-0.677-1.561-0.398-2.364l2.473-7.146l-9.198,0.91
		c-0.853,0.078-1.696-0.277-2.222-0.959c-0.527-0.68-0.667-1.582-0.371-2.391l2.723-7.428l-8.769,1.042
		c-0.832,0.096-1.658-0.227-2.2-0.863c-0.542-0.639-0.729-1.506-0.497-2.311l2.179-7.57l-8.606,0.589
		c-0.825,0.055-1.63-0.301-2.141-0.955c-0.511-0.654-0.664-1.519-0.409-2.308l2.967-9.184L0,28.232l3.106-3.918l4.833,3.833
		c0.817,0.648,1.146,1.735,0.826,2.728l-2.364,7.318l8.481-0.581c0.803-0.059,1.603,0.289,2.116,0.923
		c0.512,0.634,0.683,1.479,0.458,2.262l-2.125,7.382l9.074-1.077c0.859-0.103,1.717,0.25,2.256,0.933
		c0.539,0.682,0.685,1.594,0.386,2.411l-2.754,7.512l9.12-0.901c0.841-0.084,1.68,0.271,2.208,0.938
		c0.528,0.67,0.678,1.563,0.399,2.366l-2.475,7.149l8.996-0.872c0.829-0.082,1.651,0.26,2.18,0.909
		c0.528,0.647,0.698,1.519,0.451,2.316l-2.318,7.497l3.097-0.174c0.648-0.037,1.278,0.179,1.767,0.599l0.066,0.057
		c1.533-2.02,3.524-4.567,5.812-7.319c0,0,1.75-2.082,5.667-0.916c0,0,3.333,1.416,5.5-1.917c0,0,9.959-17,13.459-32
		c0,0,1.167-3.167-2.5-6.833c0,0-3.166-4.333-2.5-10.167c0,0,1.281-7.042,4.208-13.75c0,0,2.667-7,9.5-4.333
		c0,0,12.832,4.333,12.916,10.417C99.845,11.022,101.449,21.856,97.449,37.231z M65.464,70.075
		c-0.844,1.719-2.438,1.281-2.438,1.281c-2.688,0.438-0.875,2.344-0.875,2.344c2.656,2.281,6.469,4.094,6.469,4.094
		c3.531,1.845,4.267-0.104,4.267-0.104c13.333-20.167,18.833-42,18.833-42c-7.834-1-10.333-3-10.333-3
		C76.22,51.189,65.464,70.075,65.464,70.075z M75.471,22.981c3.334,7.083,8.333,8.167,8.333,8.167
		c6.583,2.917,8.083-1.333,8.083-1.333c2.833-7.917,3.524-17.491,3.524-17.491C95.328,7.574,86.042,4.7,86.042,4.7
		c-6.832-2.417-8.405,3.948-8.405,3.948C73.22,18.731,75.471,22.981,75.471,22.981z M45.074,84.543
		c-3.563,6.188,5.813,13.813,5.813,13.813c3.667,2.417,5,0.333,5,0.333c4.666-4.417,11.667-16.25,11.667-16.25
		c1.833-2.5-0.833-3.083-0.833-3.083c-6-3.083-8.167-6-8.167-6c-2.833-3.75-5.417,0-5.417,0
		C46.949,80.045,45.074,84.543,45.074,84.543z"/>
</g>
</svg>
