<?xml version="1.0" encoding="utf-8"?>
<!-- Generator: Adobe Illustrator 15.0.0, SVG Export Plug-In . SVG Version: 6.00 Build 0)  -->
<!DOCTYPE svg PUBLIC "-//W3C//DTD SVG 1.1//EN" "http://www.w3.org/Graphics/SVG/1.1/DTD/svg11.dtd">
<svg version="1.1" id="Layer_2_copy_2" xmlns="http://www.w3.org/2000/svg" xmlns:xlink="http://www.w3.org/1999/xlink" x="0px"
	 y="0px" width="1325.962px" height="100.006px" viewBox="297.023 8.01 1325.962 100.006"
	 enable-background="new 297.023 8.01 1325.962 100.006" xml:space="preserve">
<path d="M297.023,58.013c8.025,3.334,18.152,9.402,29.352,20.402l0.131,0.136c0.273,0.297,27.588,29.465,51.959,29.465h1163.077
	c24.373,0,51.687-29.168,51.959-29.465l0.133-0.136c11.196-10.998,21.326-17.065,29.352-20.402
	c-8.025-3.336-18.152-9.403-29.352-20.403l-0.133-0.137c-0.272-0.293-27.586-29.463-51.959-29.463H378.466
	c-24.372,0-51.687,29.169-51.959,29.463l-0.131,0.137C315.178,48.608,305.048,54.677,297.023,58.013z"/>
</svg>
