<?xml version="1.0" encoding="utf-8"?>
<!-- Generator: Adobe Illustrator 15.0.0, SVG Export Plug-In . SVG Version: 6.00 Build 0)  -->
<!DOCTYPE svg PUBLIC "-//W3C//DTD SVG 1.1//EN" "http://www.w3.org/Graphics/SVG/1.1/DTD/svg11.dtd">
<svg version="1.1" id="Layer_2_copy_2" xmlns="http://www.w3.org/2000/svg" xmlns:xlink="http://www.w3.org/1999/xlink" x="0px"
	 y="0px" width="1920px" height="116px" viewBox="2 0.012 1920 116" enable-background="new 2 0.012 1920 116" xml:space="preserve"
	>
<path fill="#47628B" d="M1541.543,116.012H378.466c-27.473,0-55.79-29.851-57.746-31.949c-20.237-19.85-36.21-21.876-40.396-22.047
	c-0.467,0.011-0.846,0.007-1.135,0l-0.267,0.009H2v-8.024h277.105l0.096,0.009c0.296-0.008,0.686-0.011,1.165,0.001
	c4.192-0.178,20.147-2.228,40.354-22.047c1.956-2.098,30.273-31.951,57.746-31.951h1163.077c27.473,0,55.79,29.852,57.744,31.951
	c20.237,19.849,36.211,21.876,40.396,22.046c0.469-0.011,0.849-0.008,1.136,0l0.267-0.009H1922V62l-3.992,0.024h-277.104
	l-0.099-0.009c-0.294,0.009-0.685,0.011-1.166-0.001c-4.192,0.178-20.146,2.229-40.353,22.048
	C1597.333,86.161,1569.016,116.012,1541.543,116.012z M297.023,58.013c8.025,3.334,18.152,9.402,29.352,20.402l0.131,0.136
	c0.273,0.296,27.588,29.465,51.959,29.465h1163.077c24.373,0,51.686-29.169,51.959-29.465l0.133-0.136
	c11.196-10.998,21.326-17.066,29.351-20.402c-8.025-3.336-18.152-9.403-29.351-20.403l-0.133-0.137
	c-0.273-0.293-27.586-29.463-51.959-29.463H378.466c-24.372,0-51.687,29.169-51.959,29.463l-0.131,0.137
	C315.178,48.608,305.048,54.677,297.023,58.013z"/>
</svg>
