<?xml version="1.0" encoding="utf-8"?>
<!-- Generator: Adobe Illustrator 15.0.0, SVG Export Plug-In . SVG Version: 6.00 Build 0)  -->
<!DOCTYPE svg PUBLIC "-//W3C//DTD SVG 1.1//EN" "http://www.w3.org/Graphics/SVG/1.1/DTD/svg11.dtd">
<svg version="1.1" xmlns="http://www.w3.org/2000/svg" xmlns:xlink="http://www.w3.org/1999/xlink" x="0px" y="0px"
	 width="98.181px" height="56.063px" viewBox="0 0 98.181 56.063" enable-background="new 0 0 98.181 56.063" xml:space="preserve">
<g id="Layer_6_copy">
	<path fill="#44608A" d="M81.259,56.063H16.922l-0.072-1.925c-0.217-5.779,2.047-16.285,11.225-20.496L0,21.402L49.09,0
		l49.091,21.402l-28.075,12.24c9.179,4.211,11.442,14.717,11.226,20.496L81.259,56.063z M20.9,52.063h56.374
		c-0.328-4.27-2.231-14.218-12.79-15.97L49.09,42.804l-15.394-6.711C23.093,37.852,21.214,47.794,20.9,52.063z M41.315,35.051
		l7.775,3.39l39.081-17.039L49.09,4.363L10.009,21.402L41.315,35.051L41.315,35.051z"/>
</g>
<g id="Layer_3">
	<polygon fill="#44608A" points="2.249,22.382 0,45.586 8.28,45.586 6.05,24.04 	"/>
</g>
</svg>
