<?xml version="1.0" encoding="utf-8"?>
<!-- Generator: Adobe Illustrator 15.0.0, SVG Export Plug-In . SVG Version: 6.00 Build 0)  -->
<!DOCTYPE svg PUBLIC "-//W3C//DTD SVG 1.1//EN" "http://www.w3.org/Graphics/SVG/1.1/DTD/svg11.dtd">
<svg version="1.1" id="Layer_2_copy_2" xmlns="http://www.w3.org/2000/svg" xmlns:xlink="http://www.w3.org/1999/xlink" x="0px"
	 y="0px" width="880.002px" height="140px" viewBox="-2.034 -1.781 880.002 140" enable-background="new -2.034 -1.781 880.002 140"
	 xml:space="preserve">
<path fill="#8A8EA5" d="M61.986,138.219c-3.137,0-9.144-1.49-14.112-7.199L1.872,79.577l-0.139-0.196
	c-0.376-0.535-3.598-5.285-3.761-10.938h-0.006L-2.027,68c0.163-5.65,3.384-10.402,3.76-10.938l0.299-0.378L47.911,5.38
	c5.137-5.901,11.432-7.283,14.448-7.152h751.217c3.003-0.135,9.313,1.25,14.484,7.193l46.002,51.443l0.139,0.197
	c0.376,0.535,3.598,5.287,3.76,10.938h0.007l-0.007,0.441c-0.162,5.652-3.384,10.402-3.76,10.938l-0.299,0.376l-45.879,51.305
	c-5.135,5.902-11.42,7.273-14.445,7.153H62.355C62.238,138.218,62.114,138.219,61.986,138.219z M438.268,130.004h375.514
	l0.111,0.006c0.104,0.018,4.265,0.033,8.159-4.441l45.727-51.137c0.666-1.031,2.068-3.705,2.146-6.213
	c-0.085-2.762-1.73-5.544-2.155-6.221l-45.68-51.083c-3.939-4.525-8.107-4.476-8.265-4.482l-0.111,0.006l-0.045-0.003L62.041,6.43
	c-0.104-0.008-4.265-0.03-8.16,4.444L8.156,62.009c-0.666,1.031-2.069,3.709-2.148,6.214c0.085,2.761,1.733,5.546,2.158,6.22
	l45.679,51.082c3.934,4.521,8.088,4.474,8.263,4.481l0.111-0.006l0.044,0.003H438.268L438.268,130.004z"/>
</svg>
