<?xml version="1.0" encoding="utf-8"?>
<!-- Generator: Adobe Illustrator 15.0.0, SVG Export Plug-In . SVG Version: 6.00 Build 0)  -->
<!DOCTYPE svg PUBLIC "-//W3C//DTD SVG 1.1//EN" "http://www.w3.org/Graphics/SVG/1.1/DTD/svg11.dtd">
<svg version="1.1" id="Layer_2_copy" xmlns="http://www.w3.org/2000/svg" xmlns:xlink="http://www.w3.org/1999/xlink" x="0px"
	 y="0px" width="1919.999px" height="142.5px" viewBox="0 0 1919.999 142.5" enable-background="new 0 0 1919.999 142.5"
	 xml:space="preserve">
<path fill="#44608A" d="M1387.499,142.5H532.5c-33.467,0-61.858-33.007-63.05-34.412c-26.411-31.072-38.634-32.763-39.389-32.837
	L0,75.25v-8l430.066-0.001c0.75-0.074,12.973-1.765,39.386-32.839C470.642,33.007,499.033,0,532.5,0h854.999
	c33.467,0,61.857,33.007,63.05,34.412c26.411,31.072,38.634,32.763,39.389,32.836l430.062,0.001v8l-430.066,0.001
	c-0.75,0.074-12.973,1.765-39.386,32.84C1449.356,109.493,1420.966,142.5,1387.499,142.5z M441.215,71.25
	c7.482,4.336,18.716,13.288,34.333,31.659c0.27,0.316,27.215,31.591,56.952,31.591h854.999c29.804,0,56.682-31.272,56.95-31.588
	c15.617-18.373,26.852-27.326,34.335-31.662c-7.483-4.335-18.717-13.288-34.333-31.66c-0.27-0.316-27.216-31.59-56.952-31.59H532.5
	c-29.803,0-56.682,31.272-56.95,31.588C459.933,57.961,448.698,66.914,441.215,71.25z"/>
</svg>
