<?xml version="1.0" encoding="utf-8"?>
<!-- Generator: Adobe Illustrator 15.0.0, SVG Export Plug-In . SVG Version: 6.00 Build 0)  -->
<!DOCTYPE svg PUBLIC "-//W3C//DTD SVG 1.1//EN" "http://www.w3.org/Graphics/SVG/1.1/DTD/svg11.dtd">
<svg version="1.1" id="Layer_2_copy_2" xmlns="http://www.w3.org/2000/svg" xmlns:xlink="http://www.w3.org/1999/xlink" x="0px"
	 y="0px" width="863.918px" height="123.582px" viewBox="6.008 6.429 863.918 123.582"
	 enable-background="new 6.008 6.429 863.918 123.582" xml:space="preserve">
<path d="M438.268,130.004h375.513l0.112,0.006c0.104,0.017,4.264,0.033,8.159-4.442l45.726-51.136
	c0.666-1.031,2.069-3.706,2.147-6.213c-0.085-2.762-1.731-5.544-2.156-6.221l-45.679-51.083c-3.939-4.525-8.108-4.476-8.265-4.482
	l-0.111,0.006l-0.045-0.003L62.041,6.43c-0.104-0.008-4.265-0.03-8.16,4.444L8.156,62.009c-0.666,1.031-2.069,3.709-2.148,6.214
	c0.085,2.762,1.733,5.546,2.158,6.221l45.679,51.082c3.934,4.521,8.088,4.473,8.263,4.481l0.111-0.006l0.044,0.003H438.268z"/>
</svg>
